<svg xmlns="http://www.w3.org/2000/svg" viewBox="0 0 266.59 187.39"><defs><style>.f262cf48-6c66-47d8-89a5-d77a6efe6931{fill:#1d1d1b;}.a15926d9-f86a-4c91-8ae7-2379824d769d{fill:none;stroke:#000;stroke-linecap:round;stroke-linejoin:round;stroke-width:1.5px;}</style></defs><title>Risorsa 10</title><g id="db52a822-9e80-405f-8197-9a583d635e78" data-name="Livello 2"><g id="9ef6f0ac-06e0-4ef2-bbc3-b001b9c26a29" data-name="Livello 1"><path class="f262cf48-6c66-47d8-89a5-d77a6efe6931" d="M180,23.35a9.85,9.85,0,0,1-.38,2.79,8.54,8.54,0,0,1-1.08,2.3,8.07,8.07,0,0,1-1.67,1.78,10,10,0,0,1-2.21,1.29,12.34,12.34,0,0,1-2.63.78,17.09,17.09,0,0,1-3.21.26h-8.38a1.8,1.8,0,0,1-1.08-.38,1.6,1.6,0,0,1-.51-1.35V2.21A1.61,1.61,0,0,1,159.4.85a1.8,1.8,0,0,1,1.08-.38h7.29a16.66,16.66,0,0,1,4.71.55,8.37,8.37,0,0,1,3.06,1.58,6.67,6.67,0,0,1,1.85,2.56A9,9,0,0,1,178,8.58a8.62,8.62,0,0,1-.27,2.18,7.8,7.8,0,0,1-.81,1.92,6.7,6.7,0,0,1-1.34,1.58,7.19,7.19,0,0,1-1.85,1.14,7.58,7.58,0,0,1,2.46.9,7.81,7.81,0,0,1,2,1.67,8.12,8.12,0,0,1,1.34,2.38A8.51,8.51,0,0,1,180,23.35ZM173.62,9a6.63,6.63,0,0,0-.32-2.11,3.89,3.89,0,0,0-1-1.6,4.59,4.59,0,0,0-1.8-1,10.2,10.2,0,0,0-2.95-.35h-4.4V14.33H168a6.9,6.9,0,0,0,2.67-.43,4.69,4.69,0,0,0,1.68-1.17,4.55,4.55,0,0,0,1-1.71A6.56,6.56,0,0,0,173.62,9Zm1.93,14.6a6.42,6.42,0,0,0-.46-2.53,4.68,4.68,0,0,0-1.33-1.83,6,6,0,0,0-2.2-1.13,12.11,12.11,0,0,0-3.33-.38h-5.1V29h6.19a8.19,8.19,0,0,0,2.55-.35,5.75,5.75,0,0,0,1.91-1,4.66,4.66,0,0,0,1.3-1.7A5.5,5.5,0,0,0,175.55,23.6Z"/><g id="650d7da4-5dea-4aa3-8db5-689b0e7460cd" data-name="LINE"><line class="a15926d9-f86a-4c91-8ae7-2379824d769d" x1="173.61" y1="75.39" x2="178.11" y2="70.89"/></g><g id="b28464e7-c072-4bb6-b38e-49ff8bdb1b8a" data-name="ARC"><path class="a15926d9-f86a-4c91-8ae7-2379824d769d" d="M178.11,70.89a6.27,6.27,0,0,1,8.84,0"/></g><g id="2303a5d9-25d9-4c50-9cbe-cccf5eaef0c1" data-name="LINE"><line class="a15926d9-f86a-4c91-8ae7-2379824d769d" x1="186.95" y1="70.89" x2="189.09" y2="73.03"/></g><g id="73362e1d-9989-4309-a81d-b214893afc8d" data-name="ARC"><path class="a15926d9-f86a-4c91-8ae7-2379824d769d" d="M189.09,73a6.28,6.28,0,0,1,0,8.85"/></g><g id="bb1b30f9-ee24-4bc2-8bc3-64322e6ea675" data-name="LINE"><line class="a15926d9-f86a-4c91-8ae7-2379824d769d" x1="189.09" y1="81.91" x2="184.59" y2="86.41"/></g><g id="cbd24eab-4f74-448a-8ef0-d0cbc32a18b0" data-name="ARC"><path class="a15926d9-f86a-4c91-8ae7-2379824d769d" d="M184.59,94.66a5.81,5.81,0,0,1,0-8.25"/></g><g id="4e9c4a12-dad9-43b0-ae86-0224c0eb1046" data-name="LINE"><line class="a15926d9-f86a-4c91-8ae7-2379824d769d" x1="184.59" y1="94.66" x2="189.09" y2="99.15"/></g><g id="4f46a001-ad95-4eb7-b6fa-462fe7a318ac" data-name="ARC"><path class="a15926d9-f86a-4c91-8ae7-2379824d769d" d="M189.09,99.15a6.28,6.28,0,0,1,0,8.85"/></g><g id="7aeb31f7-4e2f-4f87-9223-e505a270fc33" data-name="LINE"><line class="a15926d9-f86a-4c91-8ae7-2379824d769d" x1="189.09" y1="108" x2="186.95" y2="110.17"/></g><g id="06127eee-8d10-4469-8188-2a65ae3c11b6" data-name="ARC"><path class="a15926d9-f86a-4c91-8ae7-2379824d769d" d="M187,110.17a6.25,6.25,0,0,1-8.84,0"/></g><g id="527d469d-f0c8-43bd-9994-535d12aa1f33" data-name="LINE"><line class="a15926d9-f86a-4c91-8ae7-2379824d769d" x1="178.11" y1="110.17" x2="173.61" y2="105.68"/></g><g id="caef875b-cc4b-4ba6-9309-d9c1ec8221c7" data-name="ARC"><path class="a15926d9-f86a-4c91-8ae7-2379824d769d" d="M165.33,105.68a5.8,5.8,0,0,1,8.24,0"/></g><g id="ad470ff4-0c18-4acc-9508-49d93ceed964" data-name="LINE"><line class="a15926d9-f86a-4c91-8ae7-2379824d769d" x1="165.33" y1="105.68" x2="160.83" y2="110.17"/></g><g id="43009f2e-a72f-4941-8f0a-bf30c0eead29" data-name="ARC"><path class="a15926d9-f86a-4c91-8ae7-2379824d769d" d="M160.83,110.17a6.26,6.26,0,0,1-8.85,0"/></g><g id="dcbc0557-39f2-47a6-bd62-f309d8299036" data-name="LINE"><line class="a15926d9-f86a-4c91-8ae7-2379824d769d" x1="151.98" y1="110.17" x2="149.85" y2="108"/></g><g id="ad509d76-f7ef-4a50-816a-d462e3a1319f" data-name="ARC"><path class="a15926d9-f86a-4c91-8ae7-2379824d769d" d="M149.85,108a6.26,6.26,0,0,1,0-8.85"/></g><g id="6b208939-f9ea-4ca5-9e94-6340d9062fc7" data-name="LINE"><line class="a15926d9-f86a-4c91-8ae7-2379824d769d" x1="149.85" y1="99.15" x2="154.34" y2="94.66"/></g><g id="73cdfd88-07e5-4cfc-a5be-0c6386278b8c" data-name="ARC"><path class="a15926d9-f86a-4c91-8ae7-2379824d769d" d="M154.34,86.41a5.81,5.81,0,0,1,0,8.25"/></g><g id="81d096d5-b8bc-4842-8f99-c7e075f800e4" data-name="LINE"><line class="a15926d9-f86a-4c91-8ae7-2379824d769d" x1="154.34" y1="86.41" x2="149.85" y2="81.91"/></g><g id="12acfaef-2882-404d-a76c-459166fd8a2f" data-name="ARC"><path class="a15926d9-f86a-4c91-8ae7-2379824d769d" d="M149.85,81.91a6.25,6.25,0,0,1,0-8.84"/></g><g id="a3ec0329-8593-483f-ab35-7bafedd17991" data-name="LINE"><line class="a15926d9-f86a-4c91-8ae7-2379824d769d" x1="149.85" y1="73.03" x2="151.98" y2="70.89"/></g><g id="4bec158c-f7fe-4f50-b22c-0079c20832b6" data-name="ARC"><path class="a15926d9-f86a-4c91-8ae7-2379824d769d" d="M152,70.89a6.28,6.28,0,0,1,8.85,0"/></g><g id="4820f11f-d8a0-4c8e-b9c0-983de01808c0" data-name="LINE"><line class="a15926d9-f86a-4c91-8ae7-2379824d769d" x1="160.83" y1="70.89" x2="165.33" y2="75.39"/></g><g id="8b17734a-f88b-439b-97f3-3565a064c4cc" data-name="ARC"><path class="a15926d9-f86a-4c91-8ae7-2379824d769d" d="M173.61,75.39a5.81,5.81,0,0,1-8.25,0"/></g><path class="a15926d9-f86a-4c91-8ae7-2379824d769d" d="M165.59,183.64a6.19,6.19,0,0,1,7.72,0"/><g id="f5a23484-d900-413b-9374-dd4a01eaad06" data-name="ARC"><path class="a15926d9-f86a-4c91-8ae7-2379824d769d" d="M165.59,183.64a10.83,10.83,0,0,1-15.22-15.22"/></g><g id="1862954f-fc3b-4ba0-a840-61e03cc79197" data-name="ARC"><path class="a15926d9-f86a-4c91-8ae7-2379824d769d" d="M150.33,160.7a6.19,6.19,0,0,1,0,7.72"/></g><g id="28f90137-3a26-4ffc-830b-40d42911b987" data-name="ARC"><path class="a15926d9-f86a-4c91-8ae7-2379824d769d" d="M150.33,160.7a10.83,10.83,0,0,1,15.22-15.22"/></g><g id="b53ab193-7e7d-47ed-acaa-1db48b1b13b7" data-name="ARC"><path class="a15926d9-f86a-4c91-8ae7-2379824d769d" d="M173.27,145.48a6.19,6.19,0,0,1-7.72,0"/></g><g id="7a4daac6-9ab1-476e-860c-444ca5b4eece" data-name="ARC"><path class="a15926d9-f86a-4c91-8ae7-2379824d769d" d="M173.27,145.48a10.83,10.83,0,0,1,15.22,15.22"/></g><g id="bcddf594-5f44-4d67-b8c9-b27615582d47" data-name="ARC"><path class="a15926d9-f86a-4c91-8ae7-2379824d769d" d="M188.53,168.42a6.19,6.19,0,0,1,0-7.72"/></g><g id="38e938b9-4eaf-454b-a48d-49c227d590b5" data-name="ARC"><path class="a15926d9-f86a-4c91-8ae7-2379824d769d" d="M188.53,168.42a10.83,10.83,0,0,1-15.22,15.22"/></g><path class="f262cf48-6c66-47d8-89a5-d77a6efe6931" d="M257.28,16.14a25,25,0,0,1-.92,7,14.68,14.68,0,0,1-2.73,5.31,12,12,0,0,1-4.58,3.38A16.31,16.31,0,0,1,242.63,33a16.5,16.5,0,0,1-6.26-1.08A10.93,10.93,0,0,1,232,28.81a13.37,13.37,0,0,1-2.57-5.11,26.46,26.46,0,0,1-.84-7,24,24,0,0,1,.92-6.9,14.3,14.3,0,0,1,2.75-5.27,12.16,12.16,0,0,1,4.58-3.34A16.16,16.16,0,0,1,243.27,0a16.41,16.41,0,0,1,6.18,1.07,11.17,11.17,0,0,1,4.38,3.11,13.29,13.29,0,0,1,2.6,5.05A25.43,25.43,0,0,1,257.28,16.14Zm-4.51.3a25.23,25.23,0,0,0-.48-5.07,11.88,11.88,0,0,0-1.61-4.07,7.83,7.83,0,0,0-3-2.69,10.19,10.19,0,0,0-4.65-1,9.45,9.45,0,0,0-4.66,1.05,8.69,8.69,0,0,0-3.06,2.77,11.49,11.49,0,0,0-1.68,4.06,22.58,22.58,0,0,0-.51,4.87,27.09,27.09,0,0,0,.47,5.2,11.46,11.46,0,0,0,1.59,4.11,7.47,7.47,0,0,0,3,2.67,10.22,10.22,0,0,0,4.69,1,9.76,9.76,0,0,0,4.71-1,8.5,8.5,0,0,0,3.07-2.82,11.93,11.93,0,0,0,1.65-4.1A23.68,23.68,0,0,0,252.77,16.44Z"/><g id="3dde207c-78f2-44d9-812e-3042caae183d" data-name="ARC"><path class="a15926d9-f86a-4c91-8ae7-2379824d769d" d="M233.9,112.05a7.57,7.57,0,0,1-7.19-5.21"/></g><g id="488fdb0c-4f31-4dc7-aedd-144c7f118611" data-name="LINE"><line class="a15926d9-f86a-4c91-8ae7-2379824d769d" x1="226.71" y1="106.8" x2="221.12" y2="89.63"/></g><g id="b746d9d7-fcce-429f-990c-4ddc0eb69dfe" data-name="ARC"><path class="a15926d9-f86a-4c91-8ae7-2379824d769d" d="M221.12,89.63a7.57,7.57,0,0,1,2.74-8.43"/></g><g id="79aba11d-555c-4d84-8a6f-4936983fd230" data-name="LINE"><line class="a15926d9-f86a-4c91-8ae7-2379824d769d" x1="223.9" y1="81.16" x2="238.51" y2="70.56"/></g><g id="6debf6df-3183-4dfe-88dc-2fd7a949455b" data-name="ARC"><path class="a15926d9-f86a-4c91-8ae7-2379824d769d" d="M238.51,70.56a7.61,7.61,0,0,1,8.89,0"/></g><g id="1d713090-b98c-4ffe-ad04-bd284c452148" data-name="LINE"><line class="a15926d9-f86a-4c91-8ae7-2379824d769d" x1="247.4" y1="70.56" x2="262.01" y2="81.16"/></g><g id="eeab15f0-ec49-46e2-b830-211723d66102" data-name="ARC"><path class="a15926d9-f86a-4c91-8ae7-2379824d769d" d="M262,81.16a7.51,7.51,0,0,1,2.74,8.44"/></g><g id="ed3c914e-822e-418f-80a2-9b5ee1d8d98d" data-name="LINE"><line class="a15926d9-f86a-4c91-8ae7-2379824d769d" x1="264.75" y1="89.63" x2="259.17" y2="106.8"/></g><g id="03a5dc8c-5a9a-49c1-aba6-58e11f1a598a" data-name="ARC"><path class="a15926d9-f86a-4c91-8ae7-2379824d769d" d="M259.17,106.8A7.55,7.55,0,0,1,252,112"/></g><g id="8c2827c9-9f07-4523-a34d-2296af60c112" data-name="LINE"><line class="a15926d9-f86a-4c91-8ae7-2379824d769d" x1="251.97" y1="112.05" x2="233.9" y2="112.05"/></g><g id="fcc025fc-7aff-4827-8629-965b7a9c343c" data-name="LINE"><line class="a15926d9-f86a-4c91-8ae7-2379824d769d" x1="225.13" y1="169.66" x2="221.72" y2="165.31"/></g><g id="dd65c05a-bbdf-4c09-8967-2c777bb798f7" data-name="ARC"><path class="a15926d9-f86a-4c91-8ae7-2379824d769d" d="M221.72,165.31a7,7,0,0,1,1.17-9.74,6.34,6.34,0,0,1,2.39-1.2"/></g><g id="5ffa3e52-2f46-446c-9ce3-b9f8efdbc26c" data-name="LINE"><line class="a15926d9-f86a-4c91-8ae7-2379824d769d" x1="225.25" y1="154.37" x2="230.57" y2="152.87"/></g><g id="6fdbec62-be65-4532-afa1-ef1f94aa326b" data-name="ARC"><path class="a15926d9-f86a-4c91-8ae7-2379824d769d" d="M234.2,150.21a6.43,6.43,0,0,1-3.63,2.62"/></g><g id="201df998-5f9a-4fcc-a090-2fbfd4e457b5" data-name="LINE"><line class="a15926d9-f86a-4c91-8ae7-2379824d769d" x1="234.2" y1="150.21" x2="237.28" y2="145.63"/></g><g id="603e7795-9263-45b2-b955-ac5a7c661ce7" data-name="ARC"><path class="a15926d9-f86a-4c91-8ae7-2379824d769d" d="M237.28,145.63a6.94,6.94,0,0,1,9.59-1.91,7.08,7.08,0,0,1,1.91,1.91"/></g><g id="67bd5ac0-9261-4b10-b194-9e30fc7ec546" data-name="LINE"><line class="a15926d9-f86a-4c91-8ae7-2379824d769d" x1="248.78" y1="145.63" x2="251.86" y2="150.21"/></g><g id="8b97706a-ea41-4840-ac06-9323260d775f" data-name="ARC"><path class="a15926d9-f86a-4c91-8ae7-2379824d769d" d="M255.49,152.87a6.4,6.4,0,0,1-3.63-2.63"/></g><g id="35dc1b1a-a506-45a4-a568-d20274b1d1bd" data-name="LINE"><line class="a15926d9-f86a-4c91-8ae7-2379824d769d" x1="255.49" y1="152.87" x2="260.82" y2="154.37"/></g><g id="94481c89-fcff-4e3a-a0af-0fb0cb9e28c8" data-name="ARC"><path class="a15926d9-f86a-4c91-8ae7-2379824d769d" d="M260.82,154.37a6.92,6.92,0,0,1,4.76,8.54,8.31,8.31,0,0,1-1.2,2.4"/></g><g id="a8ed2b13-fb53-4650-92ab-99c3532e4b74" data-name="LINE"><line class="a15926d9-f86a-4c91-8ae7-2379824d769d" x1="264.34" y1="165.31" x2="260.93" y2="169.66"/></g><g id="1fcee03b-f2e6-40d9-b164-72133934c191" data-name="ARC"><path class="a15926d9-f86a-4c91-8ae7-2379824d769d" d="M259.54,173.89a6.6,6.6,0,0,1,1.39-4.27"/></g><g id="7a0506ba-817e-4afe-a78c-32c15e94c3b5" data-name="LINE"><line class="a15926d9-f86a-4c91-8ae7-2379824d769d" x1="259.54" y1="173.89" x2="259.77" y2="179.44"/></g><g id="aacb2ef4-b3f3-46ee-befb-178aa70274c5" data-name="ARC"><path class="a15926d9-f86a-4c91-8ae7-2379824d769d" d="M259.77,179.44a7,7,0,0,1-6.68,7.2,7.37,7.37,0,0,1-2.66-.42"/></g><g id="23741545-b194-4a29-a67c-d35c7677a647" data-name="LINE"><line class="a15926d9-f86a-4c91-8ae7-2379824d769d" x1="250.47" y1="186.19" x2="245.26" y2="184.28"/></g><g id="95366237-8a67-4394-8a8b-ee37a62a5bf8" data-name="ARC"><path class="a15926d9-f86a-4c91-8ae7-2379824d769d" d="M240.8,184.28a6.57,6.57,0,0,1,4.5,0"/></g><g id="4cbf5fb0-3009-40e8-b0cf-d4b3b66a43ab" data-name="LINE"><line class="a15926d9-f86a-4c91-8ae7-2379824d769d" x1="240.8" y1="184.28" x2="235.59" y2="186.19"/></g><g id="409073ec-bb28-487b-8de9-4069124935e7" data-name="ARC"><path class="a15926d9-f86a-4c91-8ae7-2379824d769d" d="M235.59,186.19a6.92,6.92,0,0,1-8.88-4.13,7.12,7.12,0,0,1-.41-2.66"/></g><g id="90f3f737-de25-4a69-8f8b-d1d49109319d" data-name="LINE"><line class="a15926d9-f86a-4c91-8ae7-2379824d769d" x1="226.3" y1="179.44" x2="226.52" y2="173.89"/></g><g id="15b919f9-25b4-4354-b13a-b539550fe8cb" data-name="ARC"><path class="a15926d9-f86a-4c91-8ae7-2379824d769d" d="M225.13,169.66a6.45,6.45,0,0,1,1.39,4.27"/></g><path class="f262cf48-6c66-47d8-89a5-d77a6efe6931" d="M98,31.91a.55.55,0,0,1-.1.34.65.65,0,0,1-.34.24,3.63,3.63,0,0,1-.66.15,8.79,8.79,0,0,1-2,0,3.57,3.57,0,0,1-.67-.15.65.65,0,0,1-.34-.24.55.55,0,0,1-.1-.34V1.12A.52.52,0,0,1,93.8.77a.75.75,0,0,1,.37-.24,5.3,5.3,0,0,1,.67-.15,6.85,6.85,0,0,1,1-.06,7.32,7.32,0,0,1,1,.06,4.74,4.74,0,0,1,.66.15.65.65,0,0,1,.34.24.58.58,0,0,1,.1.35Z"/><g id="af353d3a-b89d-4a14-93f1-eee146ac2213" data-name="LINE"><line class="a15926d9-f86a-4c91-8ae7-2379824d769d" x1="111.7" y1="112.05" x2="79.95" y2="112.05"/></g><g id="a05f1da1-6cdd-42ed-b62f-425fda5f1f79" data-name="ARC"><path class="a15926d9-f86a-4c91-8ae7-2379824d769d" d="M80,112.05a7.71,7.71,0,0,1-7.72-7.72,7.79,7.79,0,0,1,1-3.86"/></g><g id="138e1dbd-9e03-4b60-8a07-909930614aa4" data-name="LINE"><line class="a15926d9-f86a-4c91-8ae7-2379824d769d" x1="73.24" y1="100.47" x2="89.14" y2="72.96"/></g><g id="d1b7e456-8929-48dc-8e6a-d6f954a0a73c" data-name="ARC"><path class="a15926d9-f86a-4c91-8ae7-2379824d769d" d="M89.14,73a7.71,7.71,0,0,1,13.34,0"/></g><g id="5d8c9623-4752-4c3d-bdce-8630331b22c3" data-name="LINE"><line class="a15926d9-f86a-4c91-8ae7-2379824d769d" x1="102.48" y1="72.96" x2="118.37" y2="100.47"/></g><g id="7db57e28-7686-4c96-8ada-319940066bd0" data-name="ARC"><path class="a15926d9-f86a-4c91-8ae7-2379824d769d" d="M118.37,100.47a7.73,7.73,0,0,1-6.67,11.58"/></g><g id="d3533733-601f-4b3a-9a6a-4f252600f505" data-name="ARC"><path class="a15926d9-f86a-4c91-8ae7-2379824d769d" d="M74.22,175.47a36.86,36.86,0,0,1,18.29-31.71"/></g><g id="d5c7f6ac-af13-4309-af74-218671c6e88a" data-name="ARC"><path class="a15926d9-f86a-4c91-8ae7-2379824d769d" d="M92.51,143.8a6.56,6.56,0,0,1,6.63,0"/></g><g id="33a92390-2d50-4f28-ab4c-eda747ec44fa" data-name="ARC"><path class="a15926d9-f86a-4c91-8ae7-2379824d769d" d="M99.11,143.8a36.8,36.8,0,0,1,18.29,31.71"/></g><g id="73d461fc-44e0-4807-8daf-b308bc22c2aa" data-name="ARC"><path class="a15926d9-f86a-4c91-8ae7-2379824d769d" d="M117.43,175.47a6.62,6.62,0,0,1-3.3,5.73"/></g><g id="4e1075fd-69d2-4769-8a89-6a7c963fb739" data-name="ARC"><path class="a15926d9-f86a-4c91-8ae7-2379824d769d" d="M114.1,181.2a36.8,36.8,0,0,1-36.58,0"/></g><g id="696dc35b-abf3-40d3-b58f-f2db1996e4a0" data-name="ARC"><path class="a15926d9-f86a-4c91-8ae7-2379824d769d" d="M77.52,181.2a6.48,6.48,0,0,1-3.3-5.73"/></g><path class="f262cf48-6c66-47d8-89a5-d77a6efe6931" d="M32.67,31.86a.74.74,0,0,1-.09.36.64.64,0,0,1-.33.26,3.48,3.48,0,0,1-.67.16,8.06,8.06,0,0,1-1.09.06,11.06,11.06,0,0,1-1.42-.07,1.7,1.7,0,0,1-.81-.28,1.89,1.89,0,0,1-.45-.44L16,15.87v16a.6.6,0,0,1-.1.33.64.64,0,0,1-.35.25,3.32,3.32,0,0,1-.65.15,7.42,7.42,0,0,1-1,.06,7.36,7.36,0,0,1-1-.06,3.57,3.57,0,0,1-.67-.15.64.64,0,0,1-.35-.25.68.68,0,0,1-.09-.33V1.12a.65.65,0,0,1,.09-.35.68.68,0,0,1,.35-.24,4.6,4.6,0,0,1,.67-.15,7.36,7.36,0,0,1,1-.06,7.42,7.42,0,0,1,1,.06,4.25,4.25,0,0,1,.65.15.68.68,0,0,1,.35.24.58.58,0,0,1,.1.35V15.37L27.36,1.12a1.6,1.6,0,0,1,.35-.38,1.53,1.53,0,0,1,.48-.23,4.79,4.79,0,0,1,.7-.14,9.68,9.68,0,0,1,1.05,0,7.18,7.18,0,0,1,1,.06,3,3,0,0,1,.64.17.63.63,0,0,1,.32.24.63.63,0,0,1,.09.33,1.39,1.39,0,0,1-.17.64,5.5,5.5,0,0,1-.6.89L20.62,15.37,32.07,30.59a6.45,6.45,0,0,1,.51.88A1.17,1.17,0,0,1,32.67,31.86Z"/><g id="6b30fc80-5616-412c-a7bb-2a237a5b4f51" data-name="LINE"><line class="a15926d9-f86a-4c91-8ae7-2379824d769d" x1="1.8" y1="105.08" x2="1.8" y2="76.07"/></g><g id="b3aaae70-33cf-4757-ae36-38804dabe37f" data-name="LINE"><line class="a15926d9-f86a-4c91-8ae7-2379824d769d" x1="42.62" y1="76.07" x2="42.62" y2="105.08"/></g><g id="bf0e842e-c31d-46d1-ad92-051f9f8b1a5f" data-name="ARC"><path class="a15926d9-f86a-4c91-8ae7-2379824d769d" d="M42.62,105.08A5.87,5.87,0,0,1,36.73,111"/></g><g id="36baa063-3ad4-497c-a4b5-66fe6e0be258" data-name="LINE"><line class="a15926d9-f86a-4c91-8ae7-2379824d769d" x1="36.69" y1="110.96" x2="7.72" y2="110.96"/></g><g id="af302057-627d-4317-a3a1-9a0602b0e3d3" data-name="ARC"><path class="a15926d9-f86a-4c91-8ae7-2379824d769d" d="M7.72,111a5.86,5.86,0,0,1-5.88-5.88"/></g><g id="a5acf9cb-4aac-4881-b951-caa76434c99f" data-name="ARC"><path class="a15926d9-f86a-4c91-8ae7-2379824d769d" d="M1.8,76.07a5.87,5.87,0,0,1,5.88-5.89"/></g><g id="26b887e5-82e9-4e82-842a-727a1cd69757" data-name="LINE"><line class="a15926d9-f86a-4c91-8ae7-2379824d769d" x1="7.72" y1="70.18" x2="36.69" y2="70.18"/></g><g id="4f709c13-6e95-41d0-ae7c-a2f463bac98c" data-name="ARC"><path class="a15926d9-f86a-4c91-8ae7-2379824d769d" d="M36.69,70.18a5.88,5.88,0,0,1,5.89,5.89"/></g><g id="3d2fd39f-b9d8-4ff8-be2b-a19300f93473" data-name="CIRCLE"><path class="a15926d9-f86a-4c91-8ae7-2379824d769d" d="M43.66,164.56A21.46,21.46,0,1,0,22.23,186a21.47,21.47,0,0,0,21.43-21.48Z"/></g></g></g></svg>